<svg xmlns="http://www.w3.org/2000/svg" viewBox="0 0 32 32" width="32" height="32">
  <circle cx="16" cy="16" r="16" fill="#8247E5"/>
  <path d="M21.092 12.693c-.369-.215-.848-.215-1.254 0l-2.875 1.704-1.95 1.088-2.838 1.704c-.369.215-.848.215-1.254 0l-2.215-1.309c-.369-.215-.627-.61-.627-1.056V12.51c0-.41.258-.806.627-1.057l2.178-1.272c.369-.216.848-.216 1.254 0l2.179 1.272c.369.215.627.61.627 1.057v1.704l1.95-1.126v-1.704c0-.41-.258-.806-.627-1.057L12.112 7.83c-.369-.215-.848-.215-1.254 0L6.627 9.861C6.258 10.076 6 10.47 6 10.917v4.103c0 .41.258.806.627 1.057l4.27 2.467c.369.215.848.215 1.254 0l2.838-1.668 1.95-1.125 2.838-1.668c.369-.215.848-.215 1.254 0l2.178 1.272c.369.215.627.61.627 1.057v2.287c0 .41-.258.806-.627 1.057l-2.178 1.309c-.369.215-.848.215-1.254 0l-2.178-1.272c-.369-.216-.627-.611-.627-1.057v-1.704l-1.95 1.125v1.704c0 .41.258.806.627 1.057l4.27 2.503c.369.216.848.216 1.254 0l4.27-2.503c.369-.215.627-.61.627-1.057v-4.103c0-.41-.258-.806-.627-1.057l-4.27-2.503z" fill="#FFF"/>
</svg>
